# xmcd
#
# Track frame offsets: 
#        150
#        2705
#        6730
#        9887
#        15816
#        18535
#        21373
#        27722
#        31953
#        34050
#        38496
#        41411
#        44091
#        46774
#        51873
#        55427
#        57705
#        60545
#        62935
#        72342
#        77047
#        80108
#        85823
#        89111
#        94999
#        99435
#        102722
#        108267
#        113593
#        116320
#        121914
#        127893
#        131448
#        136569
#        142866
#        148538
#        158582
#        162007
#        168779
#        173716
#        182053
#        185836
#        192584
#        198554
#        201365
#        206261
#        217296
#        223349
#        226348
#        230385
#        236923
#        245218
#        249813
#        254182
#        259250
#        263321
#        266662
#        270416
#        276993
#        279854
#        281790
#        287487
#
# Disc length: 3947 seconds
#
# Revision: 1
# Processed by: cddbd v1.5.2PL0 Copyright (c) Steve Scherf et al.
# Submitted via: ExactAudioCopyFreeDBPlugin 1.0
#
DISCID=8e0f693e
DTITLE=Merle Watson and Doc Watson - Fingerpicking, Flatpicking and Slid
DTITLE=e - Audio Lesson [CD 2]
DYEAR=2000
DGENRE=Bluegrass
TTITLE0=Intro
TTITLE1=Slide talk
TTITLE2=Tuning
TTITLE3=Slide techniques
TTITLE4=Poor Boy Blues - Played
TTITLE5=Poor Boy Blues - Techniques
TTITLE6=Poor Boy Blues - Right-hand techniques
TTITLE7=Poor Boy Blues - Positions and chords
TTITLE8=Day Break Blues - Talk
TTITLE9=Day Break Blues - Played
TTITLE10=Day Break Blues - Techniques
TTITLE11=Day Break Blues - Chords and positions
TTITLE12=Day Break Blues - Turnaround
TTITLE13=Day Break Blues - Played with accompaniment
TTITLE14=Curly Headed Baby - Played
TTITLE15=Curly Headed Baby - Chords and positions
TTITLE16=Curly Headed Baby - Played slowly
TTITLE17=Can't Be Satisfied - Played
TTITLE18=Can't Be Satisfied - Pull-offs - played and explained
TTITLE19=Wabash Cannonball - Played
TTITLE20=Wabash Cannonball - Played Slowly
TTITLE21=Wabash Cannonball - Fingerings and techniques
TTITLE22=Wabash Cannonball - Played at speed - with backup
TTITLE23=Minglewood Blues - Played
TTITLE24=Minglewood Blues - 1st part - lead played
TTITLE25=Minglewood Blues - 2nd part - lead played
TTITLE26=Minglewood Blues - Played with bass
TTITLE27=Minglewood Blues - Techniques
TTITLE28=Miss the Mississippi And You - Played slowly
TTITLE29=Miss the Mississippi And You - Played at speed - with backup
TTITLE30=Miss the Mississippi And You - Talk and technique
TTITLE31=Columbus Stockade Blues - Talk
TTITLE32=Columbus Stockade Blues - Played slowly
TTITLE33=Columbus Stockade Blues - Played with vocal
TTITLE34=Columbus Stockade Blues - Intro
TTITLE35=Columbus Stockade Blues - Techniques
TTITLE36=Columbus Stockade Blues - Bridge (D minor part)
TTITLE37=Honky Tonkin' - Played
TTITLE38=Honky Tonkin' - Played slowly
TTITLE39=Will The Circle Be Unbroken - Played with vocal
TTITLE40=Will The Circle Be Unbroken - Played slowly
TTITLE41=Will The Circle Be Unbroken - Played again
TTITLE42=Old Joe Clark - Played
TTITLE43=Old Joe Clark - Merle's lead part - played
TTITLE44=Old Joe Clark - Flatpicking techniques
TTITLE45=Old Joe Clark - Doc's harmony techniques
TTITLE46=Salt Creek - Played
TTITLE47=Salt Creek - Merle's lead - played slowly
TTITLE48=Salt Creek - Doc's back-up part
TTITLE49=Salt Creek - Doc's harmony part - played
TTITLE50=Florida Blues - Played
TTITLE51=Florida Blues - Doc's 1st part - lead
TTITLE52=Florida Blues - Merle's blues riffs
TTITLE53=Florida Blues - Doc's improvised lead
TTITLE54=Cotton-Eyed Joe - Played
TTITLE55=Cotton-Eyed Joe - Merle's lead part
TTITLE56=Cotton-Eyed Joe - Doc's harmony part
TTITLE57=Red-Haired Boy - Played
TTITLE58=Red-Haired Boy - Merle's lead - played
TTITLE59=Red-Haired Boy - Doc's backup part
TTITLE60=Red-Haired Boy - Harmony parts
TTITLE61=Blow Your Whistle Freight Train - Played
EXTD=
EXTT0=
EXTT1=
EXTT2=
EXTT3=
EXTT4=
EXTT5=
EXTT6=
EXTT7=
EXTT8=
EXTT9=
EXTT10=
EXTT11=
EXTT12=
EXTT13=
EXTT14=
EXTT15=
EXTT16=
EXTT17=
EXTT18=
EXTT19=
EXTT20=
EXTT21=
EXTT22=
EXTT23=
EXTT24=
EXTT25=
EXTT26=
EXTT27=
EXTT28=
EXTT29=
EXTT30=
EXTT31=
EXTT32=
EXTT33=
EXTT34=
EXTT35=
EXTT36=
EXTT37=
EXTT38=
EXTT39=
EXTT40=
EXTT41=
EXTT42=
EXTT43=
EXTT44=
EXTT45=
EXTT46=
EXTT47=
EXTT48=
EXTT49=
EXTT50=
EXTT51=
EXTT52=
EXTT53=
EXTT54=
EXTT55=
EXTT56=
EXTT57=
EXTT58=
EXTT59=
EXTT60=
EXTT61=
PLAYORDER=
